<?xml version="1.0" encoding="iso-8859-1"?>
<!-- Generator: Adobe Illustrator 19.0.0, SVG Export Plug-In . SVG Version: 6.00 Build 0)  -->
<svg xmlns="http://www.w3.org/2000/svg" xmlns:xlink="http://www.w3.org/1999/xlink" version="1.1" id="Capa_1" x="0px" y="0px" viewBox="0 0 512 512" style="enable-background:new 0 0 512 512;" xml:space="preserve" width="512px" height="512px">
<g>
	<g>
		<path d="M492,27H215c-5.522,0-10,4.478-10,10s4.478,10,10,10h247.624L355.429,154.196c-3.905,3.905-3.905,10.237,0,14.143    c1.953,1.952,4.512,2.929,7.071,2.929s5.118-0.977,7.071-2.929L490.105,47.804c0.257-0.257,0.496-0.527,0.719-0.804H492v74.493    L322.493,291H212v-13c0-5.522-4.478-10-10-10c-5.522,0-10,4.478-10,10v138.917H20V211c0-5.514,4.486-10,10-10h152    c5.514,0,10,4.486,10,10v0.667c0,5.522,4.478,10,10,10c5.522,0,10-4.478,10-10V211c0-16.542-13.458-30-30-30H30    c-16.542,0-30,13.458-30,30v244c0,16.542,13.458,30,30,30h152c16.542,0,30-13.458,30-30v-64h152.902c5.522,0,10-4.478,10-10    v-21.13c0-15.919-12.951-28.87-28.87-28.87H317v-20h175c11.028,0,20-8.972,20-20V47C512,35.972,503.028,27,492,27z M192,455    c0,5.514-4.486,10-10,10H30c-5.514,0-10-4.486-10-10v-18.083h172V455z M269,311h28v20h-28V311z M346.032,351    c4.891,0,8.87,3.979,8.87,8.87V371H212v-60h37v20h-9c-5.522,0-10,4.478-10,10c0,5.522,4.478,10,10,10H346.032z M492,291H350.778    L492,149.778V291z" fill="#f0ad00"/>
	</g>
</g>
<g>
	<g>
		<path d="M172.33,29.93c-1.86-1.86-4.44-2.93-7.07-2.93s-5.21,1.069-7.07,2.93c-1.859,1.86-2.93,4.43-2.93,7.07    c0,2.63,1.07,5.21,2.93,7.069c1.86,1.861,4.44,2.931,7.07,2.931s5.21-1.07,7.07-2.931c1.859-1.859,2.93-4.439,2.93-7.069    S174.19,31.79,172.33,29.93z" fill="#f0ad00"/>
	</g>
</g>
<g>
	<g>
		<path d="M107.549,27H74c-11.028,0-20,8.972-20,20v101.5c0,5.522,4.478,10,10,10c5.522,0,10-4.478,10-10V47h33.549    c5.522,0,10-4.478,10-10S113.071,27,107.549,27z" fill="#f0ad00"/>
	</g>
</g>
<g>
	<g>
		<path d="M342.321,181.446c-3.906-3.904-10.236-3.904-14.143,0l-0.866,0.866c-3.905,3.905-3.905,10.237,0,14.143    c1.953,1.952,4.512,2.929,7.071,2.929s5.119-0.977,7.072-2.929l0.866-0.866C346.226,191.684,346.226,185.352,342.321,181.446z" fill="#f0ad00"/>
	</g>
</g>
<g>
	<g>
		<path d="M142.7,346.103c-9.803-9.803-22.837-15.202-36.7-15.202s-26.897,5.399-36.7,15.202c-3.905,3.906-3.905,10.237,0,14.143    c3.906,3.904,10.238,3.904,14.143,0c6.025-6.026,14.036-9.345,22.558-9.345c8.522,0,16.532,3.318,22.558,9.345    c1.952,1.952,4.51,2.929,7.07,2.929c2.559,0,5.118-0.977,7.071-2.929C146.605,356.341,146.605,350.01,142.7,346.103z" fill="#f0ad00"/>
	</g>
</g>
<g>
	<g>
		<path d="M172.329,316.474C154.611,298.758,131.056,289,106,289c-25.056,0-48.611,9.758-66.329,27.475    c-3.905,3.905-3.905,10.237,0,14.143c3.906,3.904,10.236,3.904,14.143,0c28.775-28.775,75.598-28.775,104.373,0    c1.953,1.951,4.511,2.928,7.071,2.928s5.118-0.977,7.071-2.929C176.234,326.712,176.234,320.38,172.329,316.474z" fill="#f0ad00"/>
	</g>
</g>
<g>
	<g>
		<path d="M113.069,375.93C111.21,374.07,108.63,373,106,373c-2.641,0-5.21,1.069-7.07,2.93C97.07,377.79,96,380.37,96,383    c0,2.64,1.069,5.21,2.93,7.069c1.86,1.86,4.44,2.931,7.07,2.931s5.21-1.07,7.069-2.931C114.93,388.21,116,385.63,116,383    S114.93,377.79,113.069,375.93z" fill="#f0ad00"/>
	</g>
</g>
<g>
	<g>
		<path d="M276.365,237.813l-14.757-14.757c-3.906-3.904-10.236-3.904-14.143,0c-3.204,3.203-3.774,8.038-1.722,11.828h-87.489    c2.053-3.791,1.483-8.625-1.721-11.828c-3.906-3.904-10.236-3.904-14.143,0l-14.757,14.757c-1.875,1.876-2.929,4.419-2.929,7.071    c0,2.652,1.054,5.196,2.929,7.071l14.757,14.756c1.953,1.952,4.512,2.929,7.071,2.929s5.119-0.977,7.071-2.929    c3.203-3.204,3.774-8.037,1.723-11.827h87.488c-2.052,3.79-1.48,8.623,1.723,11.827c1.953,1.952,4.512,2.929,7.071,2.929    c2.559,0,5.118-0.977,7.071-2.929l14.757-14.756c1.875-1.875,2.929-4.419,2.929-7.071    C279.294,242.232,278.24,239.689,276.365,237.813z" fill="#f0ad00"/>
	</g>
</g>
<g>
	<g>
		<path d="M114.62,443.93c-1.86-1.861-4.44-2.93-7.07-2.93s-5.21,1.069-7.07,2.93c-1.859,1.86-2.93,4.44-2.93,7.07    s1.07,5.21,2.93,7.069c1.86,1.86,4.44,2.931,7.07,2.931s5.21-1.07,7.07-2.931c1.859-1.859,2.93-4.439,2.93-7.069    S116.48,445.79,114.62,443.93z" fill="#f0ad00"/>
	</g>
</g>
<g>
</g>
<g>
</g>
<g>
</g>
<g>
</g>
<g>
</g>
<g>
</g>
<g>
</g>
<g>
</g>
<g>
</g>
<g>
</g>
<g>
</g>
<g>
</g>
<g>
</g>
<g>
</g>
<g>
</g>
</svg>
