<?xml version="1.0" encoding="iso-8859-1"?>
<!-- Generator: Adobe Illustrator 19.0.0, SVG Export Plug-In . SVG Version: 6.00 Build 0)  -->
<svg xmlns="http://www.w3.org/2000/svg" xmlns:xlink="http://www.w3.org/1999/xlink" version="1.1" id="Layer_1" x="0px" y="0px" viewBox="0 0 512 512" style="enable-background:new 0 0 512 512;" xml:space="preserve" width="512px" height="512px">
<g transform="translate(1 1)">
	<g>
		<g>
			<path d="M297.667,186.733c-20.212,0-38.877,6.307-54.153,17.067h-99.447c-5.12,0-8.533,3.413-8.533,8.533     c0,5.12,3.413,8.533,8.533,8.533h81.049c-8.124,9.872-14.261,21.449-17.817,34.133h-63.232c-5.12,0-8.533,3.413-8.533,8.533     s3.413,8.533,8.533,8.533h60.119c-0.25,2.81-0.385,5.655-0.385,8.533c0,8.884,1.22,17.469,3.499,25.6h-63.232     c-5.12,0-8.533,3.413-8.533,8.533s3.413,8.533,8.533,8.533h69.884c15.471,30.455,47.053,51.2,83.716,51.2     c52.053,0,93.867-41.813,93.867-93.867C391.533,228.547,349.72,186.733,297.667,186.733z M297.667,357.4     c-42.667,0-76.8-34.133-76.8-76.8c0-4.887,0.468-9.654,1.325-14.279c0.155-0.536,0.262-1.103,0.322-1.697     c3.798-18.206,13.973-33.957,28.113-44.871c0.677-0.379,1.306-0.846,1.866-1.397c12.648-9.16,28.233-14.556,45.174-14.556     c42.667,0,76.8,34.133,76.8,76.8C374.467,323.267,340.333,357.4,297.667,357.4z" fill="#f0ad00"/>
			<path d="M344.6,238.787c-4.267-2.56-9.387-1.707-11.947,2.56l-45.227,68.267l-26.453-26.453c-3.413-3.413-8.533-3.413-11.947,0     c-3.413,3.413-3.413,8.533,0,11.947l34.133,34.133c1.707,1.707,3.413,2.56,5.973,2.56c3.413,0,5.973-1.707,6.827-4.267l51.2-76.8     C349.72,246.467,348.867,241.347,344.6,238.787z" fill="#f0ad00"/>
			<path d="M459.8-1H127c-23.893,0-42.667,18.773-42.667,42.667v349.867H24.6c-14.507,0-25.6,11.093-25.6,25.6V459.8     c0,28.16,23.04,51.2,51.2,51.2h319.147h5.12c12.8,0,24.747-5.12,34.133-13.653c11.093-9.387,17.067-23.04,17.067-37.547V118.467     H485.4c14.507,0,25.6-11.093,25.6-25.6V50.2C511,22.04,487.96-1,459.8-1z M50.2,493.933c-18.773,0-34.133-15.36-34.133-34.133     v-42.667c0-4.267,3.413-8.533,8.533-8.533h68.267h230.4v49.493v1.707c0,12.8,4.267,24.747,12.8,34.133H50.2z M408.6,50.2v409.6     c0,10.24-4.267,18.773-11.093,25.6c-6.422,4.995-14.038,8.189-21.849,8.606c-0.387-0.043-0.781-0.072-1.191-0.072     c-5.787,0-11.247-1.464-16.035-4.032c-10.703-6.039-18.098-17.995-18.098-31.808v-58.027c0-5.12-3.413-8.533-8.533-8.533H101.4     V41.667c0-14.507,11.093-25.6,25.6-25.6h294.4c-1.643,2.008-3.159,4.139-4.542,6.364c-4.797,7.377-7.756,16.044-8.196,25.346     C408.621,48.581,408.6,49.389,408.6,50.2z M493.933,92.867c0,4.267-3.413,8.533-8.533,8.533h-59.733V50.2     c0-18.773,15.36-34.133,34.133-34.133c18.773,0,34.133,15.36,34.133,34.133V92.867z" fill="#f0ad00"/>
			<path d="M203.8,67.267h102.4c5.12,0,8.533-3.413,8.533-8.533S311.32,50.2,306.2,50.2H203.8c-5.12,0-8.533,3.413-8.533,8.533     S198.68,67.267,203.8,67.267z" fill="#f0ad00"/>
			<path d="M144.067,118.467h221.867c5.12,0,8.533-3.413,8.533-8.533s-3.413-8.533-8.533-8.533H144.067     c-5.12,0-8.533,3.413-8.533,8.533S138.947,118.467,144.067,118.467z" fill="#f0ad00"/>
			<path d="M144.067,169.667h221.867c5.12,0,8.533-3.413,8.533-8.533s-3.413-8.533-8.533-8.533H144.067     c-5.12,0-8.533,3.413-8.533,8.533S138.947,169.667,144.067,169.667z" fill="#f0ad00"/>
		</g>
	</g>
</g>
<g>
</g>
<g>
</g>
<g>
</g>
<g>
</g>
<g>
</g>
<g>
</g>
<g>
</g>
<g>
</g>
<g>
</g>
<g>
</g>
<g>
</g>
<g>
</g>
<g>
</g>
<g>
</g>
<g>
</g>
</svg>
